<mxfile host="Electron" modified="2023-12-11T03:27:09.032Z" agent="Mozilla/5.0 (Macintosh; Intel Mac OS X 10_15_7) AppleWebKit/537.36 (KHTML, like Gecko) draw.io/22.1.2 Chrome/114.0.5735.289 Electron/25.9.4 Safari/537.36" version="22.1.2" etag="xYGaWlFguxYvmm5hiBrU" type="device">
  <diagram name="Page-1" id="Page-1">
    <mxGraphModel dx="1114" dy="999" grid="1" gridSize="10" guides="1" tooltips="1" connect="1" arrows="1" fold="1" page="1" pageScale="1" pageWidth="827" pageHeight="1169" math="0" shadow="0">
      <root>
        <mxCell id="0" />
        <mxCell id="1" parent="0" />
        <UserObject label="&lt;div style=&quot;font-size: 1px&quot;&gt;&lt;p style=&quot;text-align:center;margin-left:0;margin-right:0;margin-top:0px;margin-bottom:0px;text-indent:0;vertical-align:middle;direction:ltr;&quot;&gt;&lt;font style=&quot;font-size:13px;font-family:0;color:#323232;direction:ltr;letter-spacing:0px;line-height:120%;opacity:1&quot;&gt;开始&lt;/font&gt;&lt;/p&gt;&lt;/div&gt;" tags="Background" id="2">
          <mxCell style="verticalAlign=middle;align=center;overflow=width;vsdxID=1;fillColor=#d6d6d6;gradientColor=none;shape=stencil(hZJLEoIwDIZP06VMSQZ0j3gPRop0rJQpD/H2UoMCLQ67JP2S/EnKMGnKrBYMeNMafRdPmbclwzMDkFUpjGxHi2HKMCm0ETejuyonv84saa2H7m2FgfLCOIiPNgv4iyL8410IVrJawCcMEP/D185Q6XCqzaMgiic+XCbwATaQX+wLod8W18ymTH8mB3eFHnydswjwGVjPgn5b3N3lzuJHYz5ZIZWiiy/f3ROPIfoemL4B);strokeColor=#323232;strokeWidth=2;spacingTop=-3;spacingBottom=-3;spacingLeft=-3;spacingRight=-3;points=[];labelBackgroundColor=none;rounded=0;html=1;whiteSpace=wrap;" parent="1" vertex="1">
            <mxGeometry x="286" y="443" width="100" height="50" as="geometry" />
          </mxCell>
        </UserObject>
        <UserObject label="&lt;div style=&quot;font-size: 1px&quot;&gt;&lt;p style=&quot;text-align:center;margin-left:0;margin-right:0;margin-top:0px;margin-bottom:0px;text-indent:0;vertical-align:middle;direction:ltr;&quot;&gt;&lt;font style=&quot;font-size:13px;font-family:0;color:#323232;direction:ltr;letter-spacing:0px;line-height:120%;opacity:1&quot;&gt;判断是恢复报警还是活动报警&lt;/font&gt;&lt;/p&gt;&lt;/div&gt;" tags="Background" id="3">
          <mxCell style="verticalAlign=middle;align=center;overflow=width;vsdxID=2;fillColor=#d6d6d6;gradientColor=none;shape=stencil(UzV2Ls5ILEhVNTIoLinKz04tz0wpyVA1dlE1MsrMy0gtyiwBslSNXVWNndPyi1LTi/JL81Ig/IJEkEoQKze/DGRCBUSfAUiHkUElhGcK4bpBVOZk5iGpNEVVikeloQHZpsK0YlWLz1QgA+HFtMycHEgIIcujBwlQCBKcxq4A);strokeColor=#323232;strokeWidth=2;spacingTop=-3;spacingBottom=-3;spacingLeft=-3;spacingRight=-3;points=[];labelBackgroundColor=none;rounded=0;html=1;whiteSpace=wrap;" parent="1" vertex="1">
            <mxGeometry x="251" y="537" width="170" height="77" as="geometry" />
          </mxCell>
        </UserObject>
        <UserObject label="&lt;div style=&quot;font-size: 1px&quot;&gt;&lt;p style=&quot;text-align:center;margin-left:0;margin-right:0;margin-top:0px;margin-bottom:0px;text-indent:0;vertical-align:middle;direction:ltr;&quot;&gt;&lt;font style=&quot;font-size:13px;font-family:0;color:#323232;direction:ltr;letter-spacing:0px;line-height:120%;opacity:1&quot;&gt;是否开启报警确认&lt;/font&gt;&lt;/p&gt;&lt;/div&gt;" tags="Background" id="4">
          <mxCell style="verticalAlign=middle;align=center;overflow=width;vsdxID=3;fillColor=#d6d6d6;gradientColor=none;shape=stencil(UzV2Ls5ILEhVNTIoLinKz04tz0wpyVA1dlE1MsrMy0gtyiwBslSNXVWNndPyi1LTi/JL81Ig/IJEkEoQKze/DGRCBUSfAUiHkUElhGcK4bpBVOZk5iGpNEVVikeloQHZpsK0YlWLz1QgA+HFtMycHEgIIcujBwlQCBKcxq4A);strokeColor=#323232;strokeWidth=2;spacingTop=-3;spacingBottom=-3;spacingLeft=-3;spacingRight=-3;points=[];labelBackgroundColor=none;rounded=0;html=1;whiteSpace=wrap;" parent="1" vertex="1">
            <mxGeometry x="288" y="666" width="96" height="57" as="geometry" />
          </mxCell>
        </UserObject>
        <UserObject label="&lt;div style=&quot;font-size: 1px&quot;&gt;&lt;p style=&quot;text-align:center;margin-left:0;margin-right:0;margin-top:0px;margin-bottom:0px;text-indent:0;vertical-align:middle;direction:ltr;&quot;&gt;&lt;font style=&quot;font-size:13px;font-family:0;color:#323232;direction:ltr;letter-spacing:0px;line-height:120%;opacity:1&quot;&gt;更新告警状态机：ack：false；&lt;br/&gt;&lt;/font&gt;&lt;font style=&quot;font-size:13px;font-family:0;color:#323232;direction:ltr;letter-spacing:0px;line-height:120%;opacity:1&quot;&gt;confirm：true;&lt;br/&gt;&lt;br/&gt;&lt;/font&gt;&lt;font style=&quot;font-size:13px;font-family:0;color:#323232;direction:ltr;letter-spacing:0px;line-height:120%;opacity:1&quot;&gt;retain：true;&lt;/font&gt;&lt;/p&gt;&lt;/div&gt;" tags="Background" id="5">
          <mxCell style="verticalAlign=middle;align=center;overflow=width;vsdxID=4;fillColor=#d6d6d6;gradientColor=none;shape=stencil(nZBRDoQgDERP03+WHsHFe5iISyOCQdT19kIaIxq//Jtp3zTpAFaTaUYNUkwx+F6v1EYD+AUpyRkdKCYFqACrzgf9C352LfuxyWRWg1/yhT/nRE5IsZWuZtCSK8CPeI0e/hF+jV7AJM4PO7KWCyr390bSiNtEtQM=);strokeColor=#323232;strokeWidth=2;spacingTop=-3;spacingBottom=-3;spacingLeft=-3;spacingRight=-3;points=[];labelBackgroundColor=none;rounded=0;html=1;whiteSpace=wrap;" parent="1" vertex="1">
            <mxGeometry x="270" y="773" width="133" height="82" as="geometry" />
          </mxCell>
        </UserObject>
        <UserObject label="&lt;div style=&quot;font-size: 1px&quot;&gt;&lt;p style=&quot;text-align:center;margin-left:0;margin-right:0;margin-top:0px;margin-bottom:0px;text-indent:0;vertical-align:middle;direction:ltr;&quot;&gt;&lt;font style=&quot;font-size:13px;font-family:0;color:#323232;direction:ltr;letter-spacing:0px;line-height:120%;opacity:1&quot;&gt;更新告警状态机：&lt;br/&gt;&lt;/font&gt;&lt;font style=&quot;font-size:13px;font-family:0;color:#323232;direction:ltr;letter-spacing:0px;line-height:120%;opacity:1&quot;&gt;ack：true &lt;br/&gt;&lt;/font&gt;&lt;font style=&quot;font-size:13px;font-family:0;color:#323232;direction:ltr;letter-spacing:0px;line-height:120%;opacity:1&quot;&gt;confirm：true;&lt;br/&gt;&lt;/font&gt;&lt;font style=&quot;font-size:13px;font-family:0;color:#323232;direction:ltr;letter-spacing:0px;line-height:120%;opacity:1&quot;&gt;retain：true&lt;/font&gt;&lt;/p&gt;&lt;/div&gt;" tags="Background" id="6">
          <mxCell style="verticalAlign=middle;align=center;overflow=width;vsdxID=5;fillColor=#d6d6d6;gradientColor=none;shape=stencil(nZBRDoQgDERP03+WHsHFe5iISyOCQdT19kIaIxq//Jtp3zTpAFaTaUYNUkwx+F6v1EYD+AUpyRkdKCYFqACrzgf9C352LfuxyWRWg1/yhT/nRE5IsZWuZtCSK8CPeI0e/hF+jV7AJM4PO7KWCyr390bSiNtEtQM=);strokeColor=#323232;strokeWidth=2;spacingTop=-3;spacingBottom=-3;spacingLeft=-3;spacingRight=-3;points=[];labelBackgroundColor=none;rounded=0;html=1;whiteSpace=wrap;" parent="1" vertex="1">
            <mxGeometry x="28" y="773" width="144" height="82" as="geometry" />
          </mxCell>
        </UserObject>
        <UserObject label="&lt;div style=&quot;font-size: 1px&quot;&gt;&lt;p style=&quot;text-align:center;margin-left:0;margin-right:0;margin-top:0px;margin-bottom:0px;text-indent:0;vertical-align:middle;direction:ltr;&quot;&gt;&lt;font style=&quot;font-size:13px;font-family:0;color:#323232;direction:ltr;letter-spacing:0px;line-height:120%;opacity:1&quot;&gt;判断状态机中:&lt;br/&gt;&lt;/font&gt;&lt;font style=&quot;font-size:13px;font-family:0;color:#323232;direction:ltr;letter-spacing:0px;line-height:120%;opacity:1&quot;&gt;ack和confirm是否都是：true &lt;br/&gt;&lt;/font&gt;&lt;/p&gt;&lt;/div&gt;" tags="Background" id="7">
          <mxCell style="verticalAlign=middle;align=center;overflow=width;vsdxID=6;fillColor=#d6d6d6;gradientColor=none;shape=stencil(UzV2Ls5ILEhVNTIoLinKz04tz0wpyVA1dlE1MsrMy0gtyiwBslSNXVWNndPyi1LTi/JL81Ig/IJEkEoQKze/DGRCBUSfAUiHkUElhGcK4bpBVOZk5iGpNEVVikeloQHZpsK0YlWLz1QgA+HFtMycHEgIIcujBwlQCBKcxq4A);strokeColor=#323232;strokeWidth=2;spacingTop=-3;spacingBottom=-3;spacingLeft=-3;spacingRight=-3;points=[];labelBackgroundColor=none;rounded=0;html=1;whiteSpace=wrap;" parent="1" vertex="1">
            <mxGeometry x="483" y="659" width="191" height="65" as="geometry" />
          </mxCell>
        </UserObject>
        <UserObject label="&lt;div style=&quot;font-size: 1px&quot;&gt;&lt;p style=&quot;text-align:center;margin-left:0;margin-right:0;margin-top:0px;margin-bottom:0px;text-indent:0;vertical-align:middle;direction:ltr;&quot;&gt;&lt;font style=&quot;font-size:13px;font-family:0;color:#323232;direction:ltr;letter-spacing:0px;line-height:120%;opacity:1&quot;&gt;更新告警状态机：&lt;br/&gt;&lt;/font&gt;&lt;font style=&quot;font-size:13px;font-family:0;color:#323232;direction:ltr;letter-spacing:0px;line-height:120%;opacity:1&quot;&gt;ack：true &lt;br/&gt;&lt;/font&gt;&lt;font style=&quot;font-size:13px;font-family:0;color:#323232;direction:ltr;letter-spacing:0px;line-height:120%;opacity:1&quot;&gt;confirm：true;&lt;br/&gt;&lt;/font&gt;&lt;font style=&quot;font-size:13px;font-family:0;color:#323232;direction:ltr;letter-spacing:0px;line-height:120%;opacity:1&quot;&gt;retain：false&lt;/font&gt;&lt;/p&gt;&lt;/div&gt;" tags="Background" id="8">
          <mxCell style="verticalAlign=middle;align=center;overflow=width;vsdxID=7;fillColor=#d6d6d6;gradientColor=none;shape=stencil(nZBRDoQgDERP03+WHsHFe5iISyOCQdT19kIaIxq//Jtp3zTpAFaTaUYNUkwx+F6v1EYD+AUpyRkdKCYFqACrzgf9C352LfuxyWRWg1/yhT/nRE5IsZWuZtCSK8CPeI0e/hF+jV7AJM4PO7KWCyr390bSiNtEtQM=);strokeColor=#323232;strokeWidth=2;spacingTop=-3;spacingBottom=-3;spacingLeft=-3;spacingRight=-3;points=[];labelBackgroundColor=none;rounded=0;html=1;whiteSpace=wrap;" parent="1" vertex="1">
            <mxGeometry x="501" y="769" width="155" height="92" as="geometry" />
          </mxCell>
        </UserObject>
        <UserObject label="&lt;div style=&quot;font-size: 1px&quot;&gt;&lt;p style=&quot;text-align:center;margin-left:0;margin-right:0;margin-top:0px;margin-bottom:0px;text-indent:0;vertical-align:middle;direction:ltr;&quot;&gt;&lt;font style=&quot;font-size:13px;font-family:0;color:#323232;direction:ltr;letter-spacing:0px;line-height:120%;opacity:1&quot;&gt;更新告警状态机：&lt;br/&gt;&lt;/font&gt;&lt;font style=&quot;font-size:13px;font-family:0;color:#323232;direction:ltr;letter-spacing:0px;line-height:120%;opacity:1&quot;&gt;ack：原有状态 &lt;br/&gt;&lt;/font&gt;&lt;font style=&quot;font-size:13px;font-family:0;color:#323232;direction:ltr;letter-spacing:0px;line-height:120%;opacity:1&quot;&gt;confirm：&lt;/font&gt;&lt;font style=&quot;font-size:13px;font-family:0;color:#323232;direction:ltr;letter-spacing:0px;line-height:120%;opacity:1&quot;&gt;原有状态&lt;/font&gt;&lt;font style=&quot;font-size:13px;font-family:0;color:#323232;direction:ltr;letter-spacing:0px;line-height:120%;opacity:1&quot;&gt;;&lt;br/&gt;&lt;/font&gt;&lt;font style=&quot;font-size:13px;font-family:0;color:#323232;direction:ltr;letter-spacing:0px;line-height:120%;opacity:1&quot;&gt;retain：true&lt;/font&gt;&lt;/p&gt;&lt;/div&gt;" tags="Background" id="9">
          <mxCell style="verticalAlign=middle;align=center;overflow=width;vsdxID=8;fillColor=#d6d6d6;gradientColor=none;shape=stencil(nZBRDoQgDERP03+WHsHFe5iISyOCQdT19kIaIxq//Jtp3zTpAFaTaUYNUkwx+F6v1EYD+AUpyRkdKCYFqACrzgf9C352LfuxyWRWg1/yhT/nRE5IsZWuZtCSK8CPeI0e/hF+jV7AJM4PO7KWCyr390bSiNtEtQM=);strokeColor=#323232;strokeWidth=2;spacingTop=-3;spacingBottom=-3;spacingLeft=-3;spacingRight=-3;points=[];labelBackgroundColor=none;rounded=0;html=1;whiteSpace=wrap;" parent="1" vertex="1">
            <mxGeometry x="748" y="769" width="150" height="92" as="geometry" />
          </mxCell>
        </UserObject>
        <UserObject label="&lt;div style=&quot;font-size: 1px&quot;&gt;&lt;p style=&quot;text-align:center;margin-left:0;margin-right:0;margin-top:0px;margin-bottom:0px;text-indent:0;vertical-align:middle;direction:ltr;&quot;&gt;&lt;font style=&quot;font-size:13px;font-family:0;color:#323232;direction:ltr;letter-spacing:0px;line-height:120%;opacity:1&quot;&gt;发送kafka报警消息&lt;/font&gt;&lt;/p&gt;&lt;/div&gt;" tags="Background" id="10">
          <mxCell style="verticalAlign=middle;align=center;overflow=width;vsdxID=9;fillColor=#d6d6d6;gradientColor=none;shape=stencil(nZBRDoQgDERP03+WHsHFe5iISyOCQdT19kIaIxq//Jtp3zTpAFaTaUYNUkwx+F6v1EYD+AUpyRkdKCYFqACrzgf9C352LfuxyWRWg1/yhT/nRE5IsZWuZtCSK8CPeI0e/hF+jV7AJM4PO7KWCyr390bSiNtEtQM=);strokeColor=#323232;strokeWidth=2;spacingTop=-3;spacingBottom=-3;spacingLeft=-3;spacingRight=-3;points=[];labelBackgroundColor=none;rounded=0;html=1;whiteSpace=wrap;" parent="1" vertex="1">
            <mxGeometry x="258" y="929" width="156" height="83" as="geometry" />
          </mxCell>
        </UserObject>
        <UserObject label="&lt;div style=&quot;font-size: 1px&quot;&gt;&lt;p style=&quot;text-align:center;margin-left:0;margin-right:0;margin-top:0px;margin-bottom:0px;text-indent:0;vertical-align:middle;direction:ltr;&quot;&gt;&lt;font style=&quot;font-size:13px;font-family:0;color:#323232;direction:ltr;letter-spacing:0px;line-height:120%;opacity:1&quot;&gt;报警消失：&lt;br/&gt;&lt;/font&gt;&lt;font style=&quot;font-size:13px;font-family:0;color:#323232;direction:ltr;letter-spacing:0px;line-height:120%;opacity:1&quot;&gt;retain=false&lt;/font&gt;&lt;/p&gt;&lt;/div&gt;" tags="Background" id="11">
          <mxCell style="verticalAlign=middle;align=center;overflow=width;vsdxID=10;fillColor=#d6d6d6;gradientColor=none;shape=stencil(UzV2Ls5ILEhVNTIoLinKz04tz0wpyVA1dlE1MsrMy0gtyiwBslSNXVWNndPyi1LTi/JL81Ig/IJEkEoQKze/DGRCBUSfAUiHkUElhGcK4bpBVOZk5iGpNEVVikeloQHZpsK0YlWLz1QgA+HFtMycHEgIIcujBwlQCBKcxq4A);strokeColor=#323232;strokeWidth=2;spacingTop=-3;spacingBottom=-3;spacingLeft=-3;spacingRight=-3;points=[];labelBackgroundColor=none;rounded=0;html=1;whiteSpace=wrap;" parent="1" vertex="1">
            <mxGeometry x="288" y="1036" width="96" height="70" as="geometry" />
          </mxCell>
        </UserObject>
        <UserObject label="&lt;div style=&quot;font-size: 1px&quot;&gt;&lt;p style=&quot;text-align:center;margin-left:0;margin-right:0;margin-top:0px;margin-bottom:0px;text-indent:0;vertical-align:middle;direction:ltr;&quot;&gt;&lt;font style=&quot;font-size:13px;font-family:0;color:#323232;direction:ltr;letter-spacing:0px;line-height:120%;opacity:1&quot;&gt;发送kafka报警消息：历史库&lt;/font&gt;&lt;/p&gt;&lt;/div&gt;" tags="Background" id="12">
          <mxCell style="verticalAlign=middle;align=center;overflow=width;vsdxID=11;fillColor=#d6d6d6;gradientColor=none;shape=stencil(nZBRDoQgDERP03+WHsHFe5iISyOCQdT19kIaIxq//Jtp3zTpAFaTaUYNUkwx+F6v1EYD+AUpyRkdKCYFqACrzgf9C352LfuxyWRWg1/yhT/nRE5IsZWuZtCSK8CPeI0e/hF+jV7AJM4PO7KWCyr390bSiNtEtQM=);strokeColor=#323232;strokeWidth=2;spacingTop=-3;spacingBottom=-3;spacingLeft=-3;spacingRight=-3;points=[];labelBackgroundColor=none;rounded=0;html=1;whiteSpace=wrap;" parent="1" vertex="1">
            <mxGeometry x="258" y="1149" width="156" height="73" as="geometry" />
          </mxCell>
        </UserObject>
        <UserObject label="&lt;div style=&quot;font-size: 1px&quot;&gt;&lt;p style=&quot;text-align:center;margin-left:0;margin-right:0;margin-top:0px;margin-bottom:0px;text-indent:0;vertical-align:middle;direction:ltr;&quot;&gt;&lt;font style=&quot;font-size:13px;font-family:0;color:#323232;direction:ltr;letter-spacing:0px;line-height:120%;opacity:1&quot;&gt;结束&lt;/font&gt;&lt;/p&gt;&lt;/div&gt;" tags="Background" id="13">
          <mxCell style="verticalAlign=middle;align=center;overflow=width;vsdxID=12;fillColor=#d6d6d6;gradientColor=none;shape=stencil(hZJLEoIwDIZP06VMSQZ0j3gPRop0rJQpD/H2UoMCLQ67JP2S/EnKMGnKrBYMeNMafRdPmbclwzMDkFUpjGxHi2HKMCm0ETejuyonv84saa2H7m2FgfLCOIiPNgv4iyL8410IVrJawCcMEP/D185Q6XCqzaMgiic+XCbwATaQX+wLod8W18ymTH8mB3eFHnydswjwGVjPgn5b3N3lzuJHYz5ZIZWiiy/f3ROPIfoemL4B);strokeColor=#323232;strokeWidth=2;spacingTop=-3;spacingBottom=-3;spacingLeft=-3;spacingRight=-3;points=[];labelBackgroundColor=none;rounded=0;html=1;whiteSpace=wrap;" parent="1" vertex="1">
            <mxGeometry x="286" y="1265" width="100" height="50" as="geometry" />
          </mxCell>
        </UserObject>
        <UserObject label="&lt;div style=&quot;font-size: 1px&quot;&gt;&lt;p style=&quot;text-align:center;margin-left:0;margin-right:0;margin-top:0px;margin-bottom:0px;text-indent:0;vertical-align:middle;direction:ltr;&quot;&gt;&lt;font style=&quot;font-size:13px;font-family:0;color:#323232;direction:ltr;letter-spacing:0px;line-height:120%;opacity:1&quot;&gt;开始&lt;/font&gt;&lt;/p&gt;&lt;/div&gt;" tags="Background" id="14">
          <mxCell style="verticalAlign=middle;align=center;overflow=width;vsdxID=13;fillColor=#d6d6d6;gradientColor=none;shape=stencil(hZJLEoIwDIZP06VMSQZ0j3gPRop0rJQpD/H2UoMCLQ67JP2S/EnKMGnKrBYMeNMafRdPmbclwzMDkFUpjGxHi2HKMCm0ETejuyonv84saa2H7m2FgfLCOIiPNgv4iyL8410IVrJawCcMEP/D185Q6XCqzaMgiic+XCbwATaQX+wLod8W18ymTH8mB3eFHnydswjwGVjPgn5b3N3lzuJHYz5ZIZWiiy/f3ROPIfoemL4B);strokeColor=#323232;strokeWidth=2;spacingTop=-3;spacingBottom=-3;spacingLeft=-3;spacingRight=-3;points=[];labelBackgroundColor=none;rounded=0;html=1;whiteSpace=wrap;" parent="1" vertex="1">
            <mxGeometry x="1040" y="468" width="100" height="50" as="geometry" />
          </mxCell>
        </UserObject>
        <UserObject label="&lt;div style=&quot;font-size: 1px&quot;&gt;&lt;p style=&quot;text-align:center;margin-left:0;margin-right:0;margin-top:0px;margin-bottom:0px;text-indent:0;vertical-align:middle;direction:ltr;&quot;&gt;&lt;font style=&quot;font-size:13px;font-family:0;color:#323232;direction:ltr;letter-spacing:0px;line-height:120%;opacity:1&quot;&gt;其他流程。。。&lt;/font&gt;&lt;/p&gt;&lt;/div&gt;" tags="Background" id="15">
          <mxCell style="verticalAlign=middle;align=center;overflow=width;vsdxID=14;fillColor=#d6d6d6;gradientColor=none;shape=stencil(nZBRDoQgDERP03+WHsHFe5iISyOCQdT19kIaIxq//Jtp3zTpAFaTaUYNUkwx+F6v1EYD+AUpyRkdKCYFqACrzgf9C352LfuxyWRWg1/yhT/nRE5IsZWuZtCSK8CPeI0e/hF+jV7AJM4PO7KWCyr390bSiNtEtQM=);strokeColor=#323232;strokeWidth=2;spacingTop=-3;spacingBottom=-3;spacingLeft=-3;spacingRight=-3;points=[];labelBackgroundColor=none;rounded=0;html=1;whiteSpace=wrap;" parent="1" vertex="1">
            <mxGeometry x="1013" y="584" width="155" height="55" as="geometry" />
          </mxCell>
        </UserObject>
        <UserObject label="&lt;div style=&quot;font-size: 1px&quot;&gt;&lt;p style=&quot;text-align:center;margin-left:0;margin-right:0;margin-top:0px;margin-bottom:0px;text-indent:0;vertical-align:middle;direction:ltr;&quot;&gt;&lt;font style=&quot;font-size:13px;font-family:0;color:#323232;direction:ltr;letter-spacing:0px;line-height:120%;opacity:1&quot;&gt;报警证实是否是true&lt;/font&gt;&lt;/p&gt;&lt;/div&gt;" tags="Background" id="16">
          <mxCell style="verticalAlign=middle;align=center;overflow=width;vsdxID=15;fillColor=#d6d6d6;gradientColor=none;shape=stencil(UzV2Ls5ILEhVNTIoLinKz04tz0wpyVA1dlE1MsrMy0gtyiwBslSNXVWNndPyi1LTi/JL81Ig/IJEkEoQKze/DGRCBUSfAUiHkUElhGcK4bpBVOZk5iGpNEVVikeloQHZpsK0YlWLz1QgA+HFtMycHEgIIcujBwlQCBKcxq4A);strokeColor=#323232;strokeWidth=2;spacingTop=-3;spacingBottom=-3;spacingLeft=-3;spacingRight=-3;points=[];labelBackgroundColor=none;rounded=0;html=1;whiteSpace=wrap;" parent="1" vertex="1">
            <mxGeometry x="957" y="688" width="267" height="88" as="geometry" />
          </mxCell>
        </UserObject>
        <UserObject label="&lt;div style=&quot;font-size: 1px&quot;&gt;&lt;p style=&quot;text-align:center;margin-left:0;margin-right:0;margin-top:0px;margin-bottom:0px;text-indent:0;vertical-align:middle;direction:ltr;&quot;&gt;&lt;font style=&quot;font-size:13px;font-family:0;color:#323232;direction:ltr;letter-spacing:0px;line-height:120%;opacity:1&quot;&gt;confirm重新设置为false&lt;/font&gt;&lt;/p&gt;&lt;/div&gt;" tags="Background" id="17">
          <mxCell style="verticalAlign=middle;align=center;overflow=width;vsdxID=16;fillColor=#d6d6d6;gradientColor=none;shape=stencil(nZBRDoQgDERP03+WHsHFe5iISyOCQdT19kIaIxq//Jtp3zTpAFaTaUYNUkwx+F6v1EYD+AUpyRkdKCYFqACrzgf9C352LfuxyWRWg1/yhT/nRE5IsZWuZtCSK8CPeI0e/hF+jV7AJM4PO7KWCyr390bSiNtEtQM=);strokeColor=#323232;strokeWidth=2;spacingTop=-3;spacingBottom=-3;spacingLeft=-3;spacingRight=-3;points=[];labelBackgroundColor=none;rounded=0;html=1;whiteSpace=wrap;" parent="1" vertex="1">
            <mxGeometry x="979" y="868" width="223" height="91" as="geometry" />
          </mxCell>
        </UserObject>
        <UserObject label="&lt;div style=&quot;font-size: 1px&quot;&gt;&lt;p style=&quot;text-align:center;margin-left:0;margin-right:0;margin-top:0px;margin-bottom:0px;text-indent:0;vertical-align:middle;direction:ltr;&quot;&gt;&lt;font style=&quot;font-size:13px;font-family:0;color:#323232;direction:ltr;letter-spacing:0px;line-height:120%;opacity:1&quot;&gt;其他流程。。。&lt;/font&gt;&lt;/p&gt;&lt;/div&gt;" tags="Background" id="18">
          <mxCell style="verticalAlign=middle;align=center;overflow=width;vsdxID=17;fillColor=#d6d6d6;gradientColor=none;shape=stencil(nZBRDoQgDERP03+WHsHFe5iISyOCQdT19kIaIxq//Jtp3zTpAFaTaUYNUkwx+F6v1EYD+AUpyRkdKCYFqACrzgf9C352LfuxyWRWg1/yhT/nRE5IsZWuZtCSK8CPeI0e/hF+jV7AJM4PO7KWCyr390bSiNtEtQM=);strokeColor=#323232;strokeWidth=2;spacingTop=-3;spacingBottom=-3;spacingLeft=-3;spacingRight=-3;points=[];labelBackgroundColor=none;rounded=0;html=1;whiteSpace=wrap;" parent="1" vertex="1">
            <mxGeometry x="1013" y="1018" width="155" height="55" as="geometry" />
          </mxCell>
        </UserObject>
        <UserObject label="&lt;div style=&quot;font-size: 1px&quot;&gt;&lt;p style=&quot;text-align:center;margin-left:0;margin-right:0;margin-top:0px;margin-bottom:0px;text-indent:0;vertical-align:middle;direction:ltr;&quot;&gt;&lt;font style=&quot;font-size:13px;font-family:0;color:#323232;direction:ltr;letter-spacing:0px;line-height:120%;opacity:1&quot;&gt;结束&lt;/font&gt;&lt;/p&gt;&lt;/div&gt;" tags="Background" id="19">
          <mxCell style="verticalAlign=middle;align=center;overflow=width;vsdxID=18;fillColor=#d6d6d6;gradientColor=none;shape=stencil(hZJLEoIwDIZP06VMSQZ0j3gPRop0rJQpD/H2UoMCLQ67JP2S/EnKMGnKrBYMeNMafRdPmbclwzMDkFUpjGxHi2HKMCm0ETejuyonv84saa2H7m2FgfLCOIiPNgv4iyL8410IVrJawCcMEP/D185Q6XCqzaMgiic+XCbwATaQX+wLod8W18ymTH8mB3eFHnydswjwGVjPgn5b3N3lzuJHYz5ZIZWiiy/f3ROPIfoemL4B);strokeColor=#323232;strokeWidth=2;spacingTop=-3;spacingBottom=-3;spacingLeft=-3;spacingRight=-3;points=[];labelBackgroundColor=none;rounded=0;html=1;whiteSpace=wrap;" parent="1" vertex="1">
            <mxGeometry x="1040" y="1132" width="100" height="50" as="geometry" />
          </mxCell>
        </UserObject>
        <UserObject label="&lt;div style=&quot;font-size: 1px&quot;&gt;&lt;p style=&quot;text-align:center;margin-left:0;margin-right:0;margin-top:0px;margin-bottom:0px;text-indent:0;vertical-align:middle;direction:ltr;&quot;&gt;&lt;font style=&quot;font-size:13px;font-family:0;color:#323232;direction:ltr;letter-spacing:0px;line-height:120%;opacity:1&quot;&gt;报警恢复&lt;/font&gt;&lt;/p&gt;&lt;/div&gt;" tags="Background" id="20">
          <mxCell style="verticalAlign=middle;align=center;overflow=width;vsdxID=19;fillColor=#d6d6d6;gradientColor=none;shape=stencil(nZBRDoQgDERP03+WHsHFe5iISyOCQdT19kIaIxq//Jtp3zTpAFaTaUYNUkwx+F6v1EYD+AUpyRkdKCYFqACrzgf9C352LfuxyWRWg1/yhT/nRE5IsZWuZtCSK8CPeI0e/hF+jV7AJM4PO7KWCyr390bSiNtEtQM=);strokeColor=#323232;strokeWidth=2;spacingTop=-3;spacingBottom=-3;spacingLeft=-3;spacingRight=-3;points=[];labelBackgroundColor=none;rounded=0;html=1;whiteSpace=wrap;" parent="1" vertex="1">
            <mxGeometry x="242" y="162" width="86" height="37" as="geometry" />
          </mxCell>
        </UserObject>
        <UserObject label="&lt;div style=&quot;font-size: 1px&quot;&gt;&lt;p style=&quot;text-align:center;margin-left:0;margin-right:0;margin-top:0px;margin-bottom:0px;text-indent:0;vertical-align:middle;direction:ltr;&quot;&gt;&lt;font style=&quot;font-size:13px;font-family:0;color:#323232;direction:ltr;letter-spacing:0px;line-height:120%;opacity:1&quot;&gt;报警产生&lt;/font&gt;&lt;/p&gt;&lt;/div&gt;" tags="Background" id="21">
          <mxCell style="verticalAlign=middle;align=center;overflow=width;vsdxID=20;fillColor=#9d8c88;gradientColor=none;shape=stencil(nZHBDsIgEES/hqtZltR6r/U/mkAtEaFSqvXvLS5Gg6kabzO7byeEYaIauqZXDGEI3h3URcvQMbFliNp2yuswKyZqJqrWebX3brSSfN9EMqqjO8eEie4gXiBcyW3KVXEf7Ig12i6ysAxy+BvNX3AaGxlpTuuySHTya0w4TEiT4pGHPwViFsj5W+KXwE9/lLOzeBbRamOox9d9Xtw8otJFfQM=);strokeColor=#323232;strokeWidth=2;spacingTop=-3;spacingBottom=-3;spacingLeft=-3;spacingRight=-3;points=[];labelBackgroundColor=none;rounded=0;html=1;whiteSpace=wrap;" parent="1" vertex="1">
            <mxGeometry x="66" y="157" width="90" height="49" as="geometry" />
          </mxCell>
        </UserObject>
        <UserObject label="&lt;div style=&quot;font-size: 1px&quot;&gt;&lt;p style=&quot;text-align:center;margin-left:0;margin-right:0;margin-top:0px;margin-bottom:0px;text-indent:0;vertical-align:middle;direction:ltr;&quot;&gt;&lt;font style=&quot;font-size:13px;font-family:0;color:#323232;direction:ltr;letter-spacing:0px;line-height:120%;opacity:1&quot;&gt;报警消失&lt;/font&gt;&lt;/p&gt;&lt;/div&gt;" tags="Background" id="22">
          <mxCell style="verticalAlign=middle;align=center;overflow=width;vsdxID=21;fillColor=#9d8c88;gradientColor=none;shape=stencil(nZHBDsIgEES/hqtZltR6r/U/mkAtEaFSqvXvLS5Gg6kabzO7byeEYaIauqZXDGEI3h3URcvQMbFliNp2yuswKyZqJqrWebX3brSSfN9EMqqjO8eEie4gXiBcyW3KVXEf7Ig12i6ysAxy+BvNX3AaGxlpTuuySHTya0w4TEiT4pGHPwViFsj5W+KXwE9/lLOzeBbRamOox9d9Xtw8otJFfQM=);strokeColor=#323232;strokeWidth=2;spacingTop=-3;spacingBottom=-3;spacingLeft=-3;spacingRight=-3;points=[];labelBackgroundColor=none;rounded=0;html=1;whiteSpace=wrap;" parent="1" vertex="1">
            <mxGeometry x="1000" y="157" width="90" height="49" as="geometry" />
          </mxCell>
        </UserObject>
        <UserObject label="&lt;div style=&quot;font-size: 1px&quot;&gt;&lt;p style=&quot;text-align:center;margin-left:0;margin-right:0;margin-top:0px;margin-bottom:0px;text-indent:0;vertical-align:middle;direction:ltr;&quot;&gt;&lt;font style=&quot;font-size:13px;font-family:0;color:#323232;direction:ltr;letter-spacing:0px;line-height:120%;opacity:1&quot;&gt;报警确认&lt;/font&gt;&lt;/p&gt;&lt;/div&gt;" tags="Background" id="23">
          <mxCell style="verticalAlign=middle;align=center;overflow=width;vsdxID=22;fillColor=#d6d6d6;gradientColor=none;shape=stencil(nZBRDoQgDERP03+WHsHFe5iISyOCQdT19kIaIxq//Jtp3zTpAFaTaUYNUkwx+F6v1EYD+AUpyRkdKCYFqACrzgf9C352LfuxyWRWg1/yhT/nRE5IsZWuZtCSK8CPeI0e/hF+jV7AJM4PO7KWCyr390bSiNtEtQM=);strokeColor=#323232;strokeWidth=2;spacingTop=-3;spacingBottom=-3;spacingLeft=-3;spacingRight=-3;points=[];labelBackgroundColor=none;rounded=0;html=1;whiteSpace=wrap;" parent="1" vertex="1">
            <mxGeometry x="507" y="162" width="86" height="37" as="geometry" />
          </mxCell>
        </UserObject>
        <UserObject label="&lt;div style=&quot;font-size: 1px&quot;&gt;&lt;p style=&quot;text-align:center;margin-left:0;margin-right:0;margin-top:0px;margin-bottom:0px;text-indent:0;vertical-align:middle;direction:ltr;&quot;&gt;&lt;font style=&quot;font-size:13px;font-family:0;color:#323232;direction:ltr;letter-spacing:0px;line-height:120%;opacity:1&quot;&gt;证实（二次确认）&lt;/font&gt;&lt;/p&gt;&lt;/div&gt;" tags="Background" id="24">
          <mxCell style="verticalAlign=middle;align=center;overflow=width;vsdxID=23;fillColor=#d6d6d6;gradientColor=none;shape=stencil(nZBRDoQgDERP03+WHsHFe5iISyOCQdT19kIaIxq//Jtp3zTpAFaTaUYNUkwx+F6v1EYD+AUpyRkdKCYFqACrzgf9C352LfuxyWRWg1/yhT/nRE5IsZWuZtCSK8CPeI0e/hF+jV7AJM4PO7KWCyr390bSiNtEtQM=);strokeColor=#323232;strokeWidth=2;spacingTop=-3;spacingBottom=-3;spacingLeft=-3;spacingRight=-3;points=[];labelBackgroundColor=none;rounded=0;html=1;whiteSpace=wrap;" parent="1" vertex="1">
            <mxGeometry x="735" y="162" width="114" height="37" as="geometry" />
          </mxCell>
        </UserObject>
        <UserObject label="&lt;div style=&quot;font-size: 1px&quot;&gt;&lt;p style=&quot;text-align:center;margin-left:0;margin-right:0;margin-top:0px;margin-bottom:0px;text-indent:0;vertical-align:middle;direction:ltr;&quot;&gt;&lt;font style=&quot;font-size:13px;font-family:0;color:#323232;direction:ltr;letter-spacing:0px;line-height:120%;opacity:1&quot;&gt;报警服务&lt;/font&gt;&lt;/p&gt;&lt;/div&gt;" tags="Background" id="25">
          <mxCell style="verticalAlign=middle;align=center;overflow=width;vsdxID=24;fillColor=none;gradientColor=none;shape=stencil(nZBLDoAgDAVP0z3SIyjeg0SURgWD+Lu9EGL8xBW7N828Ji1gOWs5KeBs9s72aqPGa8AKOCejlSMfEqAALFvrVOfsYprEk4xmTKNd44Y99VhscHY8qU7iQOYhFixbvfhXzlZfYgj3hQG+54dReh2KEw==);strokeColor=none;strokeWidth=0;spacingTop=-3;spacingBottom=-3;spacingLeft=-3;spacingRight=-3;points=[];labelBackgroundColor=none;rounded=0;html=1;whiteSpace=wrap;" parent="1" vertex="1">
            <mxGeometry x="269" y="32" width="90" height="28" as="geometry" />
          </mxCell>
        </UserObject>
        <UserObject label="&lt;div style=&quot;font-size: 1px&quot;&gt;&lt;p style=&quot;text-align:center;margin-left:0;margin-right:0;margin-top:0px;margin-bottom:0px;text-indent:0;vertical-align:middle;direction:ltr;&quot;&gt;&lt;font style=&quot;font-size:13px;font-family:0;color:#323232;direction:ltr;letter-spacing:0px;line-height:120%;opacity:1&quot;&gt;报警确认服务&lt;/font&gt;&lt;/p&gt;&lt;/div&gt;" tags="Background" id="26">
          <mxCell style="verticalAlign=middle;align=center;overflow=width;vsdxID=25;fillColor=none;gradientColor=none;shape=stencil(nZBLDoAgDAVP0z3SIyjeg0SURgWD+Lu9EGL8xBW7N828Ji1gOWs5KeBs9s72aqPGa8AKOCejlSMfEqAALFvrVOfsYprEk4xmTKNd44Y99VhscHY8qU7iQOYhFixbvfhXzlZfYgj3hQG+54dReh2KEw==);strokeColor=none;strokeWidth=0;spacingTop=-3;spacingBottom=-3;spacingLeft=-3;spacingRight=-3;points=[];labelBackgroundColor=none;rounded=0;html=1;whiteSpace=wrap;" parent="1" vertex="1">
            <mxGeometry x="688" y="32" width="90" height="28" as="geometry" />
          </mxCell>
        </UserObject>
        <UserObject label="" tags="Background" id="54">
          <mxCell style="vsdxID=32;edgeStyle=none;dashed=1;startArrow=none;endArrow=none;startSize=5;endSize=5;strokeWidth=2;strokeColor=#323232;spacingTop=0;spacingBottom=0;spacingLeft=0;spacingRight=0;verticalAlign=middle;html=1;labelBackgroundColor=#ffffff;rounded=0;" parent="1" edge="1">
            <mxGeometry relative="1" as="geometry">
              <mxPoint y="256" as="offset" />
              <Array as="points">
                <mxPoint x="490" y="188.58" />
                <mxPoint x="490" y="188.58" />
              </Array>
              <mxPoint x="490" y="33" as="sourcePoint" />
              <mxPoint x="490" y="344" as="targetPoint" />
            </mxGeometry>
          </mxCell>
        </UserObject>
        <UserObject label="" tags="Background" id="55">
          <mxCell style="vsdxID=41;edgeStyle=none;dashed=1;startArrow=none;endArrow=none;startSize=5;endSize=5;strokeWidth=2;strokeColor=#323232;spacingTop=0;spacingBottom=0;spacingLeft=0;spacingRight=0;verticalAlign=middle;html=1;labelBackgroundColor=#ffffff;rounded=0;" parent="1" edge="1">
            <mxGeometry relative="1" as="geometry">
              <mxPoint y="253" as="offset" />
              <Array as="points">
                <mxPoint x="196" y="185.07" />
                <mxPoint x="196" y="185.07" />
              </Array>
              <mxPoint x="196" y="33" as="sourcePoint" />
              <mxPoint x="196" y="337" as="targetPoint" />
            </mxGeometry>
          </mxCell>
        </UserObject>
        <UserObject label="" tags="Background" id="56">
          <mxCell style="vsdxID=45;edgeStyle=none;dashed=1;startArrow=none;endArrow=none;startSize=5;endSize=5;strokeWidth=2;strokeColor=#323232;spacingTop=0;spacingBottom=0;spacingLeft=0;spacingRight=0;verticalAlign=middle;html=1;labelBackgroundColor=#ffffff;rounded=0;" parent="1" edge="1">
            <mxGeometry relative="1" as="geometry">
              <mxPoint y="253" as="offset" />
              <Array as="points">
                <mxPoint x="933" y="185.07" />
                <mxPoint x="933" y="185.07" />
              </Array>
              <mxPoint x="933" y="33" as="sourcePoint" />
              <mxPoint x="933" y="337" as="targetPoint" />
            </mxGeometry>
          </mxCell>
        </UserObject>
        <UserObject label="" tags="Background" id="27">
          <mxCell style="vsdxID=26;edgeStyle=none;startArrow=none;endArrow=block;startSize=5;endSize=5;strokeWidth=2;strokeColor=#323232;spacingTop=0;spacingBottom=0;spacingLeft=0;spacingRight=0;verticalAlign=middle;html=1;labelBackgroundColor=#ffffff;rounded=0;exitX=0.5;exitY=1;exitDx=0;exitDy=0;exitPerimeter=0;entryX=0.5;entryY=0;entryDx=0;entryDy=0;entryPerimeter=0;" parent="1" source="9" target="10" edge="1">
            <mxGeometry relative="1" as="geometry">
              <mxPoint x="244" y="135" as="offset" />
              <Array as="points">
                <mxPoint x="823" y="895" />
                <mxPoint x="336" y="895" />
              </Array>
            </mxGeometry>
          </mxCell>
        </UserObject>
        <UserObject label="&lt;div style=&quot;font-size: 1px&quot;&gt;&lt;p style=&quot;text-align:center;margin-left:0;margin-right:0;margin-top:0px;margin-bottom:0px;text-indent:0;vertical-align:middle;direction:ltr;&quot;&gt;&lt;font style=&quot;font-size:13px;font-family:0;color:#323232;direction:ltr;letter-spacing:0px;line-height:120%;opacity:1&quot;&gt;需证实&lt;/font&gt;&lt;/p&gt;&lt;/div&gt;" tags="Background" id="28">
          <mxCell style="vsdxID=27;edgeStyle=none;startArrow=none;endArrow=block;startSize=5;endSize=5;strokeWidth=2;strokeColor=#323232;spacingTop=0;spacingBottom=0;spacingLeft=0;spacingRight=0;verticalAlign=middle;html=1;labelBackgroundColor=#ffffff;rounded=0;align=center;exitX=1.0116279069767442;exitY=0.5135135135135135;exitDx=0;exitDy=0;exitPerimeter=0;entryX=-0.008771929824561403;entryY=0.5135135135135135;entryDx=0;entryDy=0;entryPerimeter=0;" parent="1" source="23" target="24" edge="1">
            <mxGeometry relative="1" as="geometry">
              <mxPoint x="59" y="63" as="offset" />
              <Array as="points">
                <mxPoint x="664.29" y="181" />
                <mxPoint x="664.29" y="181" />
              </Array>
            </mxGeometry>
          </mxCell>
        </UserObject>
        <UserObject label="&lt;div style=&quot;font-size: 1px&quot;&gt;&lt;p style=&quot;text-align:center;margin-left:0;margin-right:0;margin-top:0px;margin-bottom:0px;text-indent:0;vertical-align:middle;direction:ltr;&quot;&gt;&lt;font style=&quot;font-size:13px;font-family:0;color:#323232;direction:ltr;letter-spacing:0px;line-height:120%;opacity:1&quot;&gt;无需证实&lt;/font&gt;&lt;/p&gt;&lt;/div&gt;" tags="Background" id="29">
          <mxCell style="vsdxID=28;edgeStyle=none;startArrow=none;endArrow=block;startSize=5;endSize=5;strokeWidth=2;strokeColor=#323232;spacingTop=0;spacingBottom=0;spacingLeft=0;spacingRight=0;verticalAlign=middle;html=1;labelBackgroundColor=#ffffff;rounded=0;align=center;exitX=1.0116279069767442;exitY=0.5135135135135135;exitDx=0;exitDy=0;exitPerimeter=0;entryX=0.5111111111111111;entryY=0.8775510204081632;entryDx=0;entryDy=0;entryPerimeter=0;" parent="1" source="23" target="22" edge="1">
            <mxGeometry relative="1" as="geometry">
              <mxPoint x="-144" as="offset" />
              <Array as="points">
                <mxPoint x="625.65" y="181" />
                <mxPoint x="625.65" y="229.89" />
                <mxPoint x="1046.16" y="229.89" />
              </Array>
            </mxGeometry>
          </mxCell>
        </UserObject>
        <UserObject label="&lt;div style=&quot;font-size: 1px&quot;&gt;&lt;p style=&quot;text-align:center;margin-left:0;margin-right:0;margin-top:0px;margin-bottom:0px;text-indent:0;vertical-align:middle;direction:ltr;&quot;&gt;&lt;font style=&quot;font-size:13px;font-family:0;color:#323232;direction:ltr;letter-spacing:0px;line-height:120%;opacity:1&quot;&gt;无需报警确认&lt;/font&gt;&lt;/p&gt;&lt;/div&gt;" tags="Background" id="30">
          <mxCell style="vsdxID=29;edgeStyle=none;startArrow=none;endArrow=block;startSize=5;endSize=5;strokeWidth=2;strokeColor=#323232;spacingTop=0;spacingBottom=0;spacingLeft=0;spacingRight=0;verticalAlign=middle;html=1;labelBackgroundColor=#ffffff;rounded=0;align=center;exitX=1.0116279069767442;exitY=0.5135135135135135;exitDx=0;exitDy=0;exitPerimeter=0;entryX=0.5111111111111111;entryY=0;entryDx=0;entryDy=0;entryPerimeter=0;" parent="1" source="20" target="22" edge="1">
            <mxGeometry relative="1" as="geometry">
              <mxPoint x="-196" y="44" as="offset" />
              <Array as="points">
                <mxPoint x="372.03" y="181" />
                <mxPoint x="372.03" y="135.31" />
                <mxPoint x="1046.12" y="135.31" />
              </Array>
            </mxGeometry>
          </mxCell>
        </UserObject>
        <UserObject label="" tags="Background" id="31">
          <mxCell style="vsdxID=30;edgeStyle=none;startArrow=none;endArrow=block;startSize=5;endSize=5;strokeWidth=2;strokeColor=#323232;spacingTop=0;spacingBottom=0;spacingLeft=0;spacingRight=0;verticalAlign=middle;html=1;labelBackgroundColor=#ffffff;rounded=0;exitX=0.5;exitY=1;exitDx=0;exitDy=0;exitPerimeter=0;entryX=0.5;entryY=0;entryDx=0;entryDy=0;entryPerimeter=0;" parent="1" source="2" target="3" edge="1">
            <mxGeometry relative="1" as="geometry">
              <mxPoint y="123" as="offset" />
              <Array as="points">
                <mxPoint x="336" y="515" />
                <mxPoint x="336" y="515" />
              </Array>
            </mxGeometry>
          </mxCell>
        </UserObject>
        <UserObject label="" tags="Background" id="32">
          <mxCell style="vsdxID=31;edgeStyle=none;startArrow=none;endArrow=block;startSize=5;endSize=5;strokeWidth=2;strokeColor=#323232;spacingTop=0;spacingBottom=0;spacingLeft=0;spacingRight=0;verticalAlign=middle;html=1;labelBackgroundColor=#ffffff;rounded=0;exitX=0.4967741935483871;exitY=1;exitDx=0;exitDy=0;exitPerimeter=0;entryX=0.49812734082397003;entryY=0;entryDx=0;entryDy=0;entryPerimeter=0;" parent="1" source="15" target="16" edge="1">
            <mxGeometry relative="1" as="geometry">
              <mxPoint y="125" as="offset" />
              <Array as="points">
                <mxPoint x="1090" y="663.67" />
                <mxPoint x="1090" y="663.67" />
              </Array>
            </mxGeometry>
          </mxCell>
        </UserObject>
        <UserObject label="" tags="Background" id="33">
          <mxCell style="vsdxID=33;edgeStyle=none;startArrow=none;endArrow=block;startSize=5;endSize=5;strokeWidth=2;strokeColor=#323232;spacingTop=0;spacingBottom=0;spacingLeft=0;spacingRight=0;verticalAlign=middle;html=1;labelBackgroundColor=#ffffff;rounded=0;exitX=0.49624060150375937;exitY=1;exitDx=0;exitDy=0;exitPerimeter=0;entryX=0.5;entryY=0;entryDx=0;entryDy=0;entryPerimeter=0;" parent="1" source="5" target="10" edge="1">
            <mxGeometry relative="1" as="geometry">
              <mxPoint y="138" as="offset" />
              <Array as="points">
                <mxPoint x="336" y="892" />
                <mxPoint x="336" y="892" />
              </Array>
            </mxGeometry>
          </mxCell>
        </UserObject>
        <UserObject label="&lt;div style=&quot;font-size: 1px&quot;&gt;&lt;p style=&quot;text-align:center;margin-left:0;margin-right:0;margin-top:0px;margin-bottom:0px;text-indent:0;vertical-align:middle;direction:ltr;&quot;&gt;&lt;font style=&quot;font-size:13px;font-family:0;color:#323232;direction:ltr;letter-spacing:0px;line-height:120%;opacity:1&quot;&gt;是&lt;/font&gt;&lt;/p&gt;&lt;/div&gt;" tags="Background" id="34">
          <mxCell style="vsdxID=34;edgeStyle=none;startArrow=none;endArrow=block;startSize=5;endSize=5;strokeWidth=2;strokeColor=#323232;spacingTop=0;spacingBottom=0;spacingLeft=0;spacingRight=0;verticalAlign=middle;html=1;labelBackgroundColor=#ffffff;rounded=0;align=center;exitX=0.49812734082397003;exitY=1.0113636363636365;exitDx=0;exitDy=0;exitPerimeter=0;entryX=0.4977578475336323;entryY=0.04395604395604396;entryDx=0;entryDy=0;entryPerimeter=0;" parent="1" source="16" target="17" edge="1">
            <mxGeometry relative="1" as="geometry">
              <mxPoint y="-6" as="offset" />
              <Array as="points">
                <mxPoint x="1090" y="824.75" />
                <mxPoint x="1090" y="824.75" />
              </Array>
            </mxGeometry>
          </mxCell>
        </UserObject>
        <UserObject label="&lt;div style=&quot;font-size: 1px&quot;&gt;&lt;p style=&quot;text-align:center;margin-left:0;margin-right:0;margin-top:0px;margin-bottom:0px;text-indent:0;vertical-align:middle;direction:ltr;&quot;&gt;&lt;font style=&quot;font-size:13px;font-family:0;color:#323232;direction:ltr;letter-spacing:0px;line-height:120%;opacity:1&quot;&gt;活动报警&lt;/font&gt;&lt;/p&gt;&lt;/div&gt;" tags="Background" id="35">
          <mxCell style="vsdxID=35;edgeStyle=none;startArrow=none;endArrow=block;startSize=5;endSize=5;strokeWidth=2;strokeColor=#323232;spacingTop=0;spacingBottom=0;spacingLeft=0;spacingRight=0;verticalAlign=middle;html=1;labelBackgroundColor=#ffffff;rounded=0;align=center;exitX=0.5;exitY=1;exitDx=0;exitDy=0;exitPerimeter=0;entryX=0.5;entryY=0;entryDx=0;entryDy=0;entryPerimeter=0;" parent="1" source="3" target="4" edge="1">
            <mxGeometry relative="1" as="geometry">
              <mxPoint y="-5" as="offset" />
              <Array as="points">
                <mxPoint x="336" y="640" />
                <mxPoint x="336" y="640" />
              </Array>
            </mxGeometry>
          </mxCell>
        </UserObject>
        <UserObject label="" tags="Background" id="36">
          <mxCell style="vsdxID=36;edgeStyle=none;startArrow=none;endArrow=block;startSize=5;endSize=5;strokeWidth=2;strokeColor=#323232;spacingTop=0;spacingBottom=0;spacingLeft=0;spacingRight=0;verticalAlign=middle;html=1;labelBackgroundColor=#ffffff;rounded=0;exitX=0.5;exitY=1;exitDx=0;exitDy=0;exitPerimeter=0;entryX=0.5;entryY=-0.02;entryDx=0;entryDy=0;entryPerimeter=0;" parent="1" source="12" target="13" edge="1">
            <mxGeometry relative="1" as="geometry">
              <mxPoint y="122" as="offset" />
              <Array as="points">
                <mxPoint x="336" y="1243" />
                <mxPoint x="336" y="1243" />
              </Array>
            </mxGeometry>
          </mxCell>
        </UserObject>
        <UserObject label="" tags="Background" id="37">
          <mxCell style="vsdxID=37;edgeStyle=none;startArrow=none;endArrow=block;startSize=5;endSize=5;strokeWidth=2;strokeColor=#323232;spacingTop=0;spacingBottom=0;spacingLeft=0;spacingRight=0;verticalAlign=middle;html=1;labelBackgroundColor=#ffffff;rounded=0;exitX=1;exitY=0.5135135135135135;exitDx=0;exitDy=0;exitPerimeter=0;entryX=0;entryY=0.4897959183673469;entryDx=0;entryDy=0;entryPerimeter=0;" parent="1" source="24" target="22" edge="1">
            <mxGeometry relative="1" as="geometry">
              <mxPoint x="-76" y="102" as="offset" />
              <Array as="points">
                <mxPoint x="924.76" y="181" />
                <mxPoint x="924.76" y="181" />
              </Array>
            </mxGeometry>
          </mxCell>
        </UserObject>
        <UserObject label="&lt;div style=&quot;font-size: 1px&quot;&gt;&lt;p style=&quot;text-align:center;margin-left:0;margin-right:0;margin-top:0px;margin-bottom:0px;text-indent:0;vertical-align:middle;direction:ltr;&quot;&gt;&lt;font style=&quot;font-size:13px;font-family:0;color:#323232;direction:ltr;letter-spacing:0px;line-height:120%;opacity:1&quot;&gt;否&lt;/font&gt;&lt;/p&gt;&lt;/div&gt;" tags="Background" id="38">
          <mxCell style="vsdxID=38;edgeStyle=none;startArrow=none;endArrow=block;startSize=5;endSize=5;strokeWidth=2;strokeColor=#323232;spacingTop=0;spacingBottom=0;spacingLeft=0;spacingRight=0;verticalAlign=middle;html=1;labelBackgroundColor=#ffffff;rounded=0;align=center;exitX=0;exitY=0.49122807017543857;exitDx=0;exitDy=0;exitPerimeter=0;entryX=0.5;entryY=0;entryDx=0;entryDy=0;entryPerimeter=0;" parent="1" source="4" target="6" edge="1">
            <mxGeometry relative="1" as="geometry">
              <mxPoint x="39" y="10" as="offset" />
              <Array as="points">
                <mxPoint x="99.38" y="694" />
              </Array>
            </mxGeometry>
          </mxCell>
        </UserObject>
        <UserObject label="&lt;div style=&quot;font-size: 1px&quot;&gt;&lt;p style=&quot;text-align:center;margin-left:0;margin-right:0;margin-top:0px;margin-bottom:0px;text-indent:0;vertical-align:middle;direction:ltr;&quot;&gt;&lt;font style=&quot;font-size:13px;font-family:0;color:#323232;direction:ltr;letter-spacing:0px;line-height:120%;opacity:1&quot;&gt;恢复报警&lt;/font&gt;&lt;/p&gt;&lt;/div&gt;" tags="Background" id="39">
          <mxCell style="vsdxID=39;edgeStyle=none;startArrow=none;endArrow=block;startSize=5;endSize=5;strokeWidth=2;strokeColor=#323232;spacingTop=0;spacingBottom=0;spacingLeft=0;spacingRight=0;verticalAlign=middle;html=1;labelBackgroundColor=#ffffff;rounded=0;align=center;exitX=1;exitY=0.4935064935064935;exitDx=0;exitDy=0;exitPerimeter=0;entryX=0.5026178010471204;entryY=0;entryDx=0;entryDy=0;entryPerimeter=0;" parent="1" source="3" target="7" edge="1">
            <mxGeometry relative="1" as="geometry">
              <mxPoint x="-58" y="10" as="offset" />
              <Array as="points">
                <mxPoint x="578.5" y="575" />
              </Array>
            </mxGeometry>
          </mxCell>
        </UserObject>
        <UserObject label="" tags="Background" id="40">
          <mxCell style="vsdxID=40;edgeStyle=none;startArrow=none;endArrow=block;startSize=5;endSize=5;strokeWidth=2;strokeColor=#323232;spacingTop=0;spacingBottom=0;spacingLeft=0;spacingRight=0;verticalAlign=middle;html=1;labelBackgroundColor=#ffffff;rounded=0;exitX=1;exitY=0.49230769230769234;exitDx=0;exitDy=0;exitPerimeter=0;entryX=0.5;entryY=0;entryDx=0;entryDy=0;entryPerimeter=0;" parent="1" source="7" target="9" edge="1">
            <mxGeometry relative="1" as="geometry">
              <mxPoint x="-113" y="179" as="offset" />
              <Array as="points">
                <mxPoint x="823" y="691" />
              </Array>
            </mxGeometry>
          </mxCell>
        </UserObject>
        <UserObject label="" tags="Background" id="41">
          <mxCell style="vsdxID=42;edgeStyle=none;startArrow=none;endArrow=block;startSize=5;endSize=5;strokeWidth=2;strokeColor=#323232;spacingTop=0;spacingBottom=0;spacingLeft=0;spacingRight=0;verticalAlign=middle;html=1;labelBackgroundColor=#ffffff;rounded=0;exitX=0.5;exitY=1;exitDx=0;exitDy=0;exitPerimeter=0;entryX=0.5;entryY=0;entryDx=0;entryDy=0;entryPerimeter=0;" parent="1" source="6" target="10" edge="1">
            <mxGeometry relative="1" as="geometry">
              <mxPoint x="-116" y="135" as="offset" />
              <Array as="points">
                <mxPoint x="100" y="894.96" />
                <mxPoint x="336.63" y="894.96" />
              </Array>
            </mxGeometry>
          </mxCell>
        </UserObject>
        <UserObject label="&lt;div style=&quot;font-size: 1px&quot;&gt;&lt;p style=&quot;text-align:center;margin-left:0;margin-right:0;margin-top:0px;margin-bottom:0px;text-indent:0;vertical-align:middle;direction:ltr;&quot;&gt;&lt;font style=&quot;font-size:13px;font-family:0;color:#323232;direction:ltr;letter-spacing:0px;line-height:120%;opacity:1&quot;&gt;否&lt;/font&gt;&lt;/p&gt;&lt;/div&gt;" tags="Background" id="42">
          <mxCell style="vsdxID=43;edgeStyle=none;startArrow=none;endArrow=block;startSize=5;endSize=5;strokeWidth=2;strokeColor=#323232;spacingTop=0;spacingBottom=0;spacingLeft=0;spacingRight=0;verticalAlign=middle;html=1;labelBackgroundColor=#ffffff;rounded=0;align=center;exitX=1;exitY=0.5;exitDx=0;exitDy=0;exitPerimeter=0;entryX=0.5;entryY=0;entryDx=0;entryDy=0;entryPerimeter=0;" parent="1" source="11" target="13" edge="1">
            <mxGeometry relative="1" as="geometry">
              <mxPoint x="-1" y="-62" as="offset" />
              <Array as="points">
                <mxPoint x="512.16" y="1071" />
                <mxPoint x="512.16" y="1235.9" />
                <mxPoint x="336" y="1235.9" />
              </Array>
            </mxGeometry>
          </mxCell>
        </UserObject>
        <UserObject label="&lt;div style=&quot;font-size: 1px&quot;&gt;&lt;p style=&quot;text-align:center;margin-left:0;margin-right:0;margin-top:0px;margin-bottom:0px;text-indent:0;vertical-align:middle;direction:ltr;&quot;&gt;&lt;font style=&quot;font-size:13px;font-family:0;color:#323232;direction:ltr;letter-spacing:0px;line-height:120%;opacity:1&quot;&gt;是&lt;/font&gt;&lt;/p&gt;&lt;/div&gt;" tags="Background" id="43">
          <mxCell style="vsdxID=44;edgeStyle=none;startArrow=none;endArrow=block;startSize=5;endSize=5;strokeWidth=2;strokeColor=#323232;spacingTop=0;spacingBottom=0;spacingLeft=0;spacingRight=0;verticalAlign=middle;html=1;labelBackgroundColor=#ffffff;rounded=0;align=center;exitX=0.5;exitY=1;exitDx=0;exitDy=0;exitPerimeter=0;entryX=0.49624060150375937;entryY=0;entryDx=0;entryDy=0;entryPerimeter=0;" parent="1" source="4" target="5" edge="1">
            <mxGeometry relative="1" as="geometry">
              <mxPoint y="5" as="offset" />
              <Array as="points">
                <mxPoint x="336" y="748" />
                <mxPoint x="336" y="748" />
              </Array>
            </mxGeometry>
          </mxCell>
        </UserObject>
        <UserObject label="" tags="Background" id="44">
          <mxCell style="vsdxID=46;edgeStyle=none;startArrow=none;endArrow=block;startSize=5;endSize=5;strokeWidth=2;strokeColor=#323232;spacingTop=0;spacingBottom=0;spacingLeft=0;spacingRight=0;verticalAlign=middle;html=1;labelBackgroundColor=#ffffff;rounded=0;exitX=0.4977578475336323;exitY=1;exitDx=0;exitDy=0;exitPerimeter=0;entryX=0.4967741935483871;entryY=0;entryDx=0;entryDy=0;entryPerimeter=0;" parent="1" source="17" target="18" edge="1">
            <mxGeometry relative="1" as="geometry">
              <mxPoint y="130" as="offset" />
              <Array as="points">
                <mxPoint x="1090" y="988.5" />
                <mxPoint x="1090" y="988.5" />
              </Array>
            </mxGeometry>
          </mxCell>
        </UserObject>
        <UserObject label="" tags="Background" id="45">
          <mxCell style="vsdxID=47;edgeStyle=none;startArrow=none;endArrow=block;startSize=5;endSize=5;strokeWidth=2;strokeColor=#323232;spacingTop=0;spacingBottom=0;spacingLeft=0;spacingRight=0;verticalAlign=middle;html=1;labelBackgroundColor=#ffffff;rounded=0;exitX=1.011111111111111;exitY=0.4897959183673469;exitDx=0;exitDy=0;exitPerimeter=0;entryX=0;entryY=0.5135135135135135;entryDx=0;entryDy=0;entryPerimeter=0;" parent="1" source="21" target="20" edge="1">
            <mxGeometry relative="1" as="geometry">
              <mxPoint x="-42" y="102" as="offset" />
              <Array as="points">
                <mxPoint x="199.41" y="181" />
                <mxPoint x="199.41" y="181" />
              </Array>
            </mxGeometry>
          </mxCell>
        </UserObject>
        <UserObject label="" tags="Background" id="46">
          <mxCell style="vsdxID=48;edgeStyle=none;startArrow=none;endArrow=block;startSize=5;endSize=5;strokeWidth=2;strokeColor=#323232;spacingTop=0;spacingBottom=0;spacingLeft=0;spacingRight=0;verticalAlign=middle;html=1;labelBackgroundColor=#ffffff;rounded=0;exitX=0.4967741935483871;exitY=1;exitDx=0;exitDy=0;exitPerimeter=0;entryX=0.5;entryY=-0.06;entryDx=0;entryDy=0;entryPerimeter=0;" parent="1" source="18" target="19" edge="1">
            <mxGeometry relative="1" as="geometry">
              <mxPoint y="129" as="offset" />
              <Array as="points">
                <mxPoint x="1090" y="1100.83" />
                <mxPoint x="1090" y="1100.83" />
              </Array>
            </mxGeometry>
          </mxCell>
        </UserObject>
        <UserObject label="&lt;div style=&quot;font-size: 1px&quot;&gt;&lt;p style=&quot;text-align:center;margin-left:0;margin-right:0;margin-top:0px;margin-bottom:0px;text-indent:0;vertical-align:middle;direction:ltr;&quot;&gt;&lt;font style=&quot;font-size:13px;font-family:0;color:#323232;direction:ltr;letter-spacing:0px;line-height:120%;opacity:1&quot;&gt;是&lt;/font&gt;&lt;/p&gt;&lt;/div&gt;" tags="Background" id="47">
          <mxCell style="vsdxID=49;edgeStyle=none;startArrow=none;endArrow=block;startSize=5;endSize=5;strokeWidth=2;strokeColor=#323232;spacingTop=0;spacingBottom=0;spacingLeft=0;spacingRight=0;verticalAlign=middle;html=1;labelBackgroundColor=#ffffff;rounded=0;align=center;exitX=0.5;exitY=1;exitDx=0;exitDy=0;exitPerimeter=0;entryX=0.5;entryY=0;entryDx=0;entryDy=0;entryPerimeter=0;" parent="1" source="11" target="12" edge="1">
            <mxGeometry relative="1" as="geometry">
              <mxPoint y="-5" as="offset" />
              <Array as="points">
                <mxPoint x="336" y="1127.5" />
                <mxPoint x="336" y="1127.5" />
              </Array>
            </mxGeometry>
          </mxCell>
        </UserObject>
        <UserObject label="" tags="Background" id="48">
          <mxCell style="vsdxID=50;edgeStyle=none;startArrow=none;endArrow=block;startSize=5;endSize=5;strokeWidth=2;strokeColor=#323232;spacingTop=0;spacingBottom=0;spacingLeft=0;spacingRight=0;verticalAlign=middle;html=1;labelBackgroundColor=#ffffff;rounded=0;exitX=0.5032258064516129;exitY=1;exitDx=0;exitDy=0;exitPerimeter=0;entryX=0.5;entryY=0;entryDx=0;entryDy=0;entryPerimeter=0;" parent="1" source="8" target="10" edge="1">
            <mxGeometry relative="1" as="geometry">
              <mxPoint x="121" y="135" as="offset" />
              <Array as="points">
                <mxPoint x="579" y="895" />
                <mxPoint x="336.5" y="895" />
              </Array>
            </mxGeometry>
          </mxCell>
        </UserObject>
        <UserObject label="&lt;div style=&quot;font-size: 1px&quot;&gt;&lt;p style=&quot;text-align:center;margin-left:0;margin-right:0;margin-top:0px;margin-bottom:0px;text-indent:0;vertical-align:middle;direction:ltr;&quot;&gt;&lt;font style=&quot;font-size:13px;font-family:0;color:#323232;direction:ltr;letter-spacing:0px;line-height:120%;opacity:1&quot;&gt;需报警确认&lt;/font&gt;&lt;/p&gt;&lt;/div&gt;" tags="Background" id="49">
          <mxCell style="vsdxID=51;edgeStyle=none;startArrow=none;endArrow=block;startSize=5;endSize=5;strokeWidth=2;strokeColor=#323232;spacingTop=0;spacingBottom=0;spacingLeft=0;spacingRight=0;verticalAlign=middle;html=1;labelBackgroundColor=#ffffff;rounded=0;align=center;exitX=1.0116279069767442;exitY=0.5135135135135135;exitDx=0;exitDy=0;exitPerimeter=0;entryX=0.023255813953488372;entryY=0.5135135135135135;entryDx=0;entryDy=0;entryPerimeter=0;" parent="1" source="20" target="23" edge="1">
            <mxGeometry relative="1" as="geometry">
              <mxPoint x="57" y="63" as="offset" />
              <Array as="points">
                <mxPoint x="419.17" y="181" />
                <mxPoint x="419.17" y="181" />
              </Array>
            </mxGeometry>
          </mxCell>
        </UserObject>
        <UserObject label="" tags="Background" id="50">
          <mxCell style="vsdxID=52;edgeStyle=none;startArrow=none;endArrow=block;startSize=5;endSize=5;strokeWidth=2;strokeColor=#323232;spacingTop=0;spacingBottom=0;spacingLeft=0;spacingRight=0;verticalAlign=middle;html=1;labelBackgroundColor=#ffffff;rounded=0;exitX=0.5;exitY=1;exitDx=0;exitDy=0;exitPerimeter=0;entryX=0.4967741935483871;entryY=-0.07272727272727272;entryDx=0;entryDy=0;entryPerimeter=0;" parent="1" source="14" target="15" edge="1">
            <mxGeometry relative="1" as="geometry">
              <mxPoint y="133" as="offset" />
              <Array as="points">
                <mxPoint x="1090" y="549.46" />
                <mxPoint x="1090" y="549.46" />
              </Array>
            </mxGeometry>
          </mxCell>
        </UserObject>
        <UserObject label="" tags="Background" id="51">
          <mxCell style="vsdxID=53;edgeStyle=none;startArrow=none;endArrow=block;startSize=5;endSize=5;strokeWidth=2;strokeColor=#323232;spacingTop=0;spacingBottom=0;spacingLeft=0;spacingRight=0;verticalAlign=middle;html=1;labelBackgroundColor=#ffffff;rounded=0;exitX=0.5;exitY=1;exitDx=0;exitDy=0;exitPerimeter=0;entryX=0.5;entryY=0;entryDx=0;entryDy=0;entryPerimeter=0;" parent="1" source="10" target="11" edge="1">
            <mxGeometry relative="1" as="geometry">
              <mxPoint y="113" as="offset" />
              <Array as="points">
                <mxPoint x="336" y="1024" />
                <mxPoint x="336" y="1024" />
              </Array>
            </mxGeometry>
          </mxCell>
        </UserObject>
        <UserObject label="&lt;div style=&quot;font-size: 1px&quot;&gt;&lt;p style=&quot;text-align:center;margin-left:0;margin-right:0;margin-top:0px;margin-bottom:0px;text-indent:0;vertical-align:middle;direction:ltr;&quot;&gt;&lt;font style=&quot;font-size:13px;font-family:0;color:#323232;direction:ltr;letter-spacing:0px;line-height:120%;opacity:1&quot;&gt;否&lt;/font&gt;&lt;/p&gt;&lt;/div&gt;" tags="Background" id="52">
          <mxCell style="vsdxID=54;edgeStyle=none;startArrow=none;endArrow=block;startSize=5;endSize=5;strokeWidth=2;strokeColor=#323232;spacingTop=0;spacingBottom=0;spacingLeft=0;spacingRight=0;verticalAlign=middle;html=1;labelBackgroundColor=#ffffff;rounded=0;align=center;exitX=1;exitY=0.5113636363636364;exitDx=0;exitDy=0;exitPerimeter=0;entryX=1;entryY=0.509090909090909;entryDx=0;entryDy=0;entryPerimeter=0;" parent="1" source="16" target="18" edge="1">
            <mxGeometry relative="1" as="geometry">
              <mxPoint y="-70" as="offset" />
              <Array as="points">
                <mxPoint x="1253.77" y="733" />
                <mxPoint x="1253.77" y="1046" />
              </Array>
            </mxGeometry>
          </mxCell>
        </UserObject>
        <UserObject label="" tags="Background" id="53">
          <mxCell style="vsdxID=55;edgeStyle=none;startArrow=none;endArrow=block;startSize=5;endSize=5;strokeWidth=2;strokeColor=#323232;spacingTop=0;spacingBottom=0;spacingLeft=0;spacingRight=0;verticalAlign=middle;html=1;labelBackgroundColor=#ffffff;rounded=0;exitX=0.5026178010471204;exitY=1;exitDx=0;exitDy=0;exitPerimeter=0;entryX=0.5032258064516129;entryY=0;entryDx=0;entryDy=0;entryPerimeter=0;" parent="1" source="7" target="8" edge="1">
            <mxGeometry relative="1" as="geometry">
              <mxPoint y="123" as="offset" />
              <Array as="points">
                <mxPoint x="579" y="746.5" />
                <mxPoint x="579" y="746.5" />
              </Array>
            </mxGeometry>
          </mxCell>
        </UserObject>
      </root>
    </mxGraphModel>
  </diagram>
</mxfile>
